<svg width="29" height="25" viewBox="0 0 29 25" fill="none" xmlns="http://www.w3.org/2000/svg">
<path d="M29 2.95962C27.9216 3.46154 26.7724 3.79423 25.5744 3.95577C26.8069 3.175 27.7476 1.94808 28.1898 0.469231C27.0407 1.19615 25.7719 1.70962 24.4198 1.99615C23.3287 0.763462 21.7736 0 20.0771 0C16.7856 0 14.1357 2.83462 14.1357 6.30962C14.1357 6.80962 14.1756 7.29038 14.2734 7.74808C9.33075 7.49231 4.95719 4.97885 2.01912 1.15C1.50619 2.09423 1.20531 3.175 1.20531 4.33846C1.20531 6.52308 2.26562 8.45961 3.84612 9.58077C2.89094 9.56154 1.95387 9.26731 1.16 8.80385C1.16 8.82308 1.16 8.84808 1.16 8.87308C1.16 11.9385 3.22081 14.4846 5.92325 15.0712C5.43931 15.2115 4.91187 15.2788 4.3645 15.2788C3.98388 15.2788 3.59962 15.2558 3.23894 15.1712C4.00925 17.6692 6.19513 19.5058 8.79425 19.5654C6.7715 21.2442 4.20319 22.2558 1.42281 22.2558C0.93525 22.2558 0.467625 22.2327 0 22.1692C2.63356 23.9712 5.75469 25 9.1205 25C20.0607 25 26.042 15.3846 26.042 7.05C26.042 6.77115 26.0329 6.50192 26.0203 6.23462C27.2002 5.34615 28.1916 4.23654 29 2.95962Z" fill="#6D6D6D"/>
</svg>
