<svg width="20" height="25" viewBox="0 0 20 25" fill="none" xmlns="http://www.w3.org/2000/svg">
<path d="M10.3349 0C3.58685 0.00104168 0 4.39173 0 9.1793C0 11.3991 1.2216 14.169 3.1776 15.0471C3.73558 15.3023 3.66173 14.9908 4.14175 13.1262C4.1797 12.971 4.16021 12.8366 4.03713 12.6918C1.24109 9.40742 3.49146 2.65525 9.93589 2.65525C19.2625 2.65525 17.5199 15.7617 11.5585 15.7617C10.0221 15.7617 8.87738 14.5367 9.23945 13.021C9.67845 11.2158 10.538 9.27513 10.538 7.97407C10.538 4.69486 5.72747 5.18132 5.72747 9.52618C5.72747 10.8689 6.19519 11.7752 6.19519 11.7752C6.19519 11.7752 4.64742 18.1253 4.36022 19.3117C3.87404 21.3201 4.42587 24.5712 4.47408 24.8514C4.50382 25.0056 4.67409 25.0545 4.76948 24.9274C4.9223 24.7243 6.79317 22.0139 7.3173 20.0545C7.50808 19.3409 8.29068 16.445 8.29068 16.445C8.80661 17.3909 10.2939 18.1825 11.8786 18.1825C16.5926 18.1825 20 13.9742 20 8.75221C19.9836 3.74589 15.7649 0 10.3349 0Z" fill="#6D6D6D"/>
</svg>
